PathFileType	4	(X/Y/Z)	RBDS013\RBDS013runT45.trc
DataRate	CameraRate	NumFrames	NumMarkers	Units	OrigDataRate	OrigDataStartFrame	OrigNumFrames
150.000000	150.000000	5	33	mm	150.000000	1125	4500
Frame#	Time	L.ASIS			L.Heel.Bottom			L.Heel.Lateral			L.Heel.Top			L.Iliac.Crest			L.MT1			L.MT5			L.PSIS			L.Shank.Bottom.Lateral			L.Shank.Bottom.Medial			L.Shank.Top.Lateral			L.Shank.Top.Medial			L.Thigh.Bottom.Lateral			L.Thigh.Bottom.Medial			L.Thigh.Top.Lateral			L.Thigh.Top.Medial			R.ASIS			R.ASY			R.Heel.Bottom			R.Heel.Lateral			R.Heel.Top			R.Iliac.Crest			R.MT1			R.MT5			R.PSIS			R.Shank.Bottom.Lateral			R.Shank.Bottom.Medial			R.Shank.Top.Lateral			R.Shank.Top.Medial			R.Thigh.Bottom.Lateral			R.Thigh.Bottom.Medial			R.Thigh.Top.Lateral			R.Thigh.Top.Medial			
		X1	Y1	Z1	X2	Y2	Z2	X3	Y3	Z3	X4	Y4	Z4	X5	Y5	Z5	X6	Y6	Z6	X7	Y7	Z7	X8	Y8	Z8	X9	Y9	Z9	X10	Y10	Z10	X11	Y11	Z11	X12	Y12	Z12	X13	Y13	Z13	X14	Y14	Z14	X15	Y15	Z15	X16	Y16	Z16	X17	Y17	Z17	X18	Y18	Z18	X19	Y19	Z19	X20	Y20	Z20	X21	Y21	Z21	X22	Y22	Z22	X23	Y23	Z23	X24	Y24	Z24	X25	Y25	Z25	X26	Y26	Z26	X27	Y27	Z27	X28	Y28	Z28	X29	Y29	Z29	X30	Y30	Z30	X31	Y31	Z31	X32	Y32	Z32	X33	Y33	Z33	

1126	7.500000000000001	2358.732771299697	919.1190824669559	907.6329999490712	1744.743622749662	244.6503886767434	1010.878429171469	1766.742895719908	234.6556228804632	963.2830132025516	1783.921337595674	266.5866921468188	997.1167617501982	2336.230187851955	999.181764001057	883.1195960242305	1896.133433589575	96.56902848042967	1023.235610803572	1837.508972583628	96.65146421955482	928.3094713447094	2213.132552577735	991.2414176351923	986.4446405058358	1867.869888587562	295.2351784193538	929.1750156964898	1842.899623479523	319.5628911969019	972.9844022682198	1906.488391632921	364.6433784201492	914.6649023469217	1884.168445587123	388.0624095083372	958.174648892951	2145.078508750703	614.2377461780371	875.5857056317893	2091.42736907375	643.5979918378856	915.7891025036137	2185.873426239517	715.6959656079026	859.9024385078037	2135.759329034015	743.3693847913053	898.8939302190794	2379.154631829205	939.4693494091858	1131.948596704957	2383.612809236522	235.1626722966118	1094.122987385446	2211.934287655897	319.7111095967622	1082.019083331328	2243.560280219179	319.2236555257208	1121.455178084033	2253.187074298477	349.8335547444454	1079.835616955928	2336.882572527791	1013.71285142069	1175.438726744307	2372.582979555183	188.8291199449848	1050.616897208134	2348.906108338386	204.6838067442421	1155.301752935675	2215.238984277819	991.9377174295099	1087.900422150941	2343.828731399745	372.1306586384088	1135.122136897029	2315.784321931061	398.5649757376416	1100.818971161454	2390.980356217236	442.3335212236633	1146.888353907594	2358.989571320807	466.6379064472288	1111.563655786337	2497.976508595446	707.4502449155242	1187.041354364615	2458.080051169318	657.0565124215955	1151.992444233395	2407.252234641039	766.9792566304022	1200.931167219256	2368.209509564546	717.9945350938594	1170.766019741257	
1127	7.506666666666667	2360.629214931383	922.0092741165071	908.1516683382717	1728.537125763177	267.7786083820341	1009.600094258896	1749.492473501848	256.6860949787206	961.7830735718236	1768.746018325383	287.7092225183177	995.3431007275751	2340.960840864548	1002.566772951215	883.6219409252295	1872.818796238405	111.6134210771009	1020.488954059908	1813.300476543652	114.3330501670062	926.4238794457476	2215.493754326794	996.3135366959779	986.1234863041898	1852.624307512137	311.9869214709257	927.3015182186222	1828.686996075794	336.9714840663421	971.2696187528004	1893.783931881614	379.8423483618325	913.0460827233289	1872.483713031041	403.818102972492	956.6241799960019	2140.115365935349	621.8097498812631	874.4644915930818	2087.207762523478	652.1242171281021	915.1269361399512	2183.092236330609	722.4868596480716	859.2420493880041	2133.694532498296	751.0094745660804	898.7498354067347	2379.83326500915	942.2256780982809	1131.571170802619	2416.889543629924	223.6446020128479	1094.514851829077	2238.807124513597	292.4173614650949	1079.592133678388	2269.63618134351	294.7939521927021	1119.47060435605	2277.092396367251	326.0640083133662	1077.856962564272	2338.602754073539	1017.784595387539	1175.625658748899	2410.652214834186	176.5901901828085	1050.996537806458	2384.230933066856	190.3843069506923	1155.154631394389	2217.16542527616	996.682608588069	1087.827936565245	2364.37528096416	356.8612162201974	1134.025685801616	2334.960805851979	380.5887320677435	1098.807322840319	2405.172316669883	430.892306164898	1145.874419309509	2372.095019955743	452.1685688708694	1109.620860959857	2499.013579439409	711.6604944873897	1185.561017480629	2458.584502509762	660.2335537619272	1152.520249473017	2408.031853977419	770.8289972543993	1199.837030451831	2368.703231860791	721.189491238561	1170.954726071309	
1128	7.513333333333334	2362.179344219544	924.7730688635552	908.5246190863417	1712.699360271728	291.9888369377911	1008.843330405942	1732.568694703006	280.0258208890136	960.8000673057047	1753.815667672369	309.9325744315987	994.1599989864682	2344.368314101205	1005.619451285514	884.0603524068659	1849.407667098604	128.4572944730157	1018.064942981147	1789.265945741186	134.2288559744587	924.7534802196438	2217.495926777157	1001.05378917297	985.9551456753369	1837.864718564534	329.7363741387727	925.9409527192697	1815.193339207152	355.5237734557801	970.0208843108802	1881.969567962331	395.5775322009956	911.7792781544882	1861.930832008519	420.2491437577726	955.4018520970061	2136.715614054577	628.3470548161691	873.3127477640729	2084.229298188617	659.316850904891	914.1287484067172	2181.269339099158	728.4407459284123	858.5457957677866	2132.317179123358	757.526761129169	898.3211065148412	2380.155602607246	944.2509629091672	1131.379613623277	2450.303444940717	213.5729894786631	1094.971506543445	2267.259676162386	266.0006587771443	1077.143904300834	2296.986411758711	271.157025125662	1117.521259649234	2302.255496251478	302.9174142605853	1075.943087302077	2339.814871375728	1020.971244426477	1175.925203248997	2448.932583908698	166.3246603891542	1051.412835324218	2419.850016409361	177.663634028056	1155.068950729855	2218.815857355716	1000.840649915483	1087.806151695062	2385.274599254059	341.9186198158613	1133.027035080758	2354.862889208238	362.8899540170862	1096.835572729235	2419.437753469841	419.1302529969523	1145.046790348859	2385.704063754437	437.3527224144278	1107.781974410262	2498.722134366841	713.8302511168544	1184.18748066493	2457.590482455491	661.7282670944398	1152.898646024106	2407.814743903287	773.1740448795534	1198.721732840137	2368.023723256561	723.257937142919	1170.80610407988	
1129	7.52	2363.414208012217	927.4225872318968	908.7340366923841	1697.431907066659	317.2904413354093	1008.555729218977	1716.214562512422	304.6328724368484	960.2892845437448	1739.357739510389	333.2252351915713	993.5114165633823	2346.426748213301	1008.399723300619	884.4089177344844	1825.995608870414	146.970262427284	1016.000112385687	1765.55614917759	156.1697745074246	923.3188405973148	2219.110438176418	1005.375477105665	985.9387473265456	1823.696988628712	348.4504540981463	925.0627152589145	1802.547071306402	375.1199016726032	969.2516929867711	1871.062839823178	411.8272521788977	910.8724873459535	1852.536861390532	437.2746374427927	954.5530791194966	2134.769397213619	633.7456989550622	872.1606589907633	2082.389302744722	665.1391499925185	912.8098912361111	2180.364624362486	733.4525570627555	857.7997464301292	2131.587277110982	762.8775616584455	897.5742127967186	2380.152084859252	945.5944877668585	1131.34246189705	2483.507837467196	205.0172264680604	1095.44628518272	2296.992437812761	240.7275151190857	1074.773560638151	2325.376872690022	248.5200833612494	1115.677552255868	2328.411107359968	280.6240651101803	1074.181311831581	2340.51769012121	1023.255168825871	1176.294741291272	2486.988995155255	158.1238466344881	1051.794736540128	2455.480824297415	166.5914958799795	1154.996888151521	2220.149108353015	1004.32701492811	1087.841774328772	2406.367764085781	327.421615736932	1132.147428400465	2375.266840540504	345.6335634357255	1094.997271889715	2433.679905922671	407.1517149766844	1144.430799194908	2399.648056975052	422.3465944708043	1106.138032437252	2497.083889305026	713.903180258807	1182.961420048397	2455.112680794653	661.5688319075995	1153.007377211514	2406.614639210993	773.9696518927886	1197.626313970476	2366.20226470146	724.2065064265508	1170.268043127196	
1130	7.526666666666667	2364.377314075354	929.9492862282693	908.7669237867444	1683.022994960643	343.6696042510219	1008.642015364334	1700.751966643025	330.4390232668671	960.1630757188656	1725.68033700516	357.5289220375802	993.3031792011054	2347.188754760478	1010.960573177537	884.6511023946925	1802.766446574192	167.0117258921139	1014.293128564718	1742.413864675868	179.9560901282258	922.1069543307831	2220.329065933467	1009.18785793293	986.0662252548589	1810.304683526717	368.0494372555117	924.6014403651775	1790.923687363279	395.6196830144069	968.9232350739049	1861.140807925666	428.5357158237935	910.3048918721282	1844.358161041911	454.7874401967296	954.0748607264018	2134.12249818661	637.9608782310559	871.0444797949208	2081.567302204681	669.6177953776074	911.2211742335405	2180.312090397099	737.4588505889886	856.9946875325452	2131.461111644049	767.065155300784	896.5034065884713	2379.874142490355	946.3258656811585	1131.410290506481	2516.119471628095	198.0160534039001	1095.889739087287	2327.626070698626	216.8768165421214	1072.568518455847	2354.505202122918	227.1052063757369	1113.999384300037	2355.228496889794	259.426464657691	1072.646572041687	2340.732535341007	1024.653848727457	1176.683315093698	2524.339410615874	152.0286021280857	1052.068065105153	2490.79635580315	157.2104763054961	1154.880721005884	2221.138760597215	1007.073696454316	1087.937152279354	2427.465439385943	313.5083202069611	1131.407747545993	2395.909523636023	328.9906464299853	1093.380142129095	2447.780893490746	395.0910835056631	1144.039497439906	2413.723485188106	407.3235615285732	1104.76890727982	2494.136293368752	711.9138410281745	1181.916909663325	2451.227519162215	659.8506804865284	1152.750617614628	2404.493497146193	773.2402629726956	1196.58499518873	2363.325338104872	724.0849756764907	1169.318836506873	
